#format: frame checksums
#version: 2
#hash: MD5
#tb 0: 1/30
#media_type 0: video
#codec_id 0: rawvideo
#dimensions 0: 320x180
#sar 0: 0/1
#tb 1: 1/44100
#media_type 1: audio
#codec_id 1: pcm_s16le
#sample_rate 1: 44100
#channel_layout_name 1: stereo
#stream#, dts,        pts, duration,     size, hash
0,          0,          0,        1,   172800, 1379f3ec832413594892574eb880022b
1,          0,          0,    22050,    88200, 86007117aee1cec53506a350e36a4d81
0,          1,          1,        1,   172800, 1379f3ec832413594892574eb880022b
0,          2,          2,        1,   172800, 3e7d6566f22c7ac6aca71cfad493587c
0,          3,          3,        1,   172800, 3e7d6566f22c7ac6aca71cfad493587c
0,          4,          4,        1,   172800, a4ad1a80eead99dd07fc0dff79ef9fc5
0,          5,          5,        1,   172800, a4ad1a80eead99dd07fc0dff79ef9fc5
0,          6,          6,        1,   172800, b7435c8d1390f9d861680c0420af19b3
0,          7,          7,        1,   172800, b7435c8d1390f9d861680c0420af19b3
0,          8,          8,        1,   172800, 5e1f9cc2f586a5d704782914d54b99f1
0,          9,          9,        1,   172800, 5e1f9cc2f586a5d704782914d54b99f1
0,         10,         10,        1,   172800, b6195ef6df24b2dee033d4f50de18ac4
0,         11,         11,        1,   172800, b6195ef6df24b2dee033d4f50de18ac4
0,         12,         12,        1,   172800, 7b827b603ad461b42d9a2a1dc2c303d0
0,         13,         13,        1,   172800, 7b827b603ad461b42d9a2a1dc2c303d0
0,         14,         14,        1,   172800, 1a2f6d8e0453c59414eb175ff4f1fca3
0,         15,         15,        1,   172800, 1a2f6d8e0453c59414eb175ff4f1fca3
1,      22050,      22050,    22050,    88200, 755a4a59880f143d9cbfef0090e8b9be
0,         16,         16,        1,   172800, c8493f4eea02e068f34dd48a0f0144f1
0,         17,         17,        1,   172800, c8493f4eea02e068f34dd48a0f0144f1
0,         18,         18,        1,   172800, 45aa4de7ad18e857d735fcbd16a93289
0,         19,         19,        1,   172800, 45aa4de7ad18e857d735fcbd16a93289
0,         20,         20,        1,   172800, b2a59f670ff2831c347469c237606cb7
0,         21,         21,        1,   172800, b2a59f670ff2831c347469c237606cb7
0,         22,         22,        1,   172800, 7115225c1fbc91f40851f0258ceb01d1
0,         23,         23,        1,   172800, 7115225c1fbc91f40851f0258ceb01d1
0,         24,         24,        1,   172800, 6a798f820c1a65f16358b20f1da5432b
0,         25,         25,        1,   172800, 6a798f820c1a65f16358b20f1da5432b
0,         26,         26,        1,   172800, f656734d7e0edf5687edb4789a3e4a88
0,         27,         27,        1,   172800, f656734d7e0edf5687edb4789a3e4a88
0,         28,         28,        1,   172800, 15905523f54f2d0b787bbaff034369ea
0,         29,         29,        1,   172800, 15905523f54f2d0b787bbaff034369ea
0,         30,         30,        1,   172800, 6291ac157ea133a9017d74aef5864590
1,      44100,      44100,    22050,    88200, cdc1834c538716c1e388853b8e945624
0,         31,         31,        1,   172800, 6291ac157ea133a9017d74aef5864590
0,         32,         32,        1,   172800, be5a074e509c65c486d048884db566e8
0,         33,         33,        1,   172800, be5a074e509c65c486d048884db566e8
0,         34,         34,        1,   172800, c7d6940eddd83bd415bfc155ceb28466
0,         35,         35,        1,   172800, c7d6940eddd83bd415bfc155ceb28466
0,         36,         36,        1,   172800, 407de091cd6976419b4dea6612647ed8
0,         37,         37,        1,   172800, 407de091cd6976419b4dea6612647ed8
0,         38,         38,        1,   172800, 9c182b6a7583da63aade7a8d3060cb56
0,         39,         39,        1,   172800, 9c182b6a7583da63aade7a8d3060cb56
0,         40,         40,        1,   172800, d2e8922f3c1ce08ef3a75f58b2ccf181
0,         41,         41,        1,   172800, d2e8922f3c1ce08ef3a75f58b2ccf181
0,         42,         42,        1,   172800, 3259c921217b546b852af8f2090150e8
0,         43,         43,        1,   172800, 3259c921217b546b852af8f2090150e8
0,         44,         44,        1,   172800, 366e35df3f3579b538368ba98bc215eb
0,         45,         45,        1,   172800, 366e35df3f3579b538368ba98bc215eb
1,      66150,      66150,    22050,    88200, 37ecbcbaa4f8adb505dc8414ddf729b4
0,         46,         46,        1,   172800, eb1a46a5208405d713606ee8121bae49
0,         47,         47,        1,   172800, eb1a46a5208405d713606ee8121bae49
0,         48,         48,        1,   172800, f7f8933dbdf932dcb1986eaed98545d0
0,         49,         49,        1,   172800, f7f8933dbdf932dcb1986eaed98545d0
0,         50,         50,        1,   172800, 199f4b3c82e6cb0ecb0e74394154bf32
0,         51,         51,        1,   172800, 199f4b3c82e6cb0ecb0e74394154bf32
0,         52,         52,        1,   172800, 0e21058223b531ad3f6fb8bb289b34af
0,         53,         53,        1,   172800, 0e21058223b531ad3f6fb8bb289b34af
0,         54,         54,        1,   172800, 8c70837de405d4b36d446a9159f57ba3
0,         55,         55,        1,   172800, 8c70837de405d4b36d446a9159f57ba3
0,         56,         56,        1,   172800, 0d782e075c65f2ba759f8a021dccf572
0,         57,         57,        1,   172800, 0d782e075c65f2ba759f8a021dccf572
0,         58,         58,        1,   172800, 87430f6ee48b286c40c78e3fc7ceeaf7
0,         59,         59,        1,   172800, 87430f6ee48b286c40c78e3fc7ceeaf7
0,         60,         60,        1,   172800, 22feb5caa7d6797dc8edb5baf733d938
1,      88200,      88200,    22050,    88200, 0fb6eacf9a9feb2e1e7a26e8a3bc64d6
0,         61,         61,        1,   172800, 22feb5caa7d6797dc8edb5baf733d938
0,         62,         62,        1,   172800, 11451d1f67947ace5ffc5bbe909ff39a
0,         63,         63,        1,   172800, 11451d1f67947ace5ffc5bbe909ff39a
0,         64,         64,        1,   172800, 2aef1798a7db8f910172dc09b8f86006
0,         65,         65,        1,   172800, 2aef1798a7db8f910172dc09b8f86006
0,         66,         66,        1,   172800, ae05f864fc5cb65f5665b4171de60b47
0,         67,         67,        1,   172800, ae05f864fc5cb65f5665b4171de60b47
0,         68,         68,        1,   172800, 2a203db1a3ba2c06e6e9f072793fa402
0,         69,         69,        1,   172800, 2a203db1a3ba2c06e6e9f072793fa402
0,         70,         70,        1,   172800, 2e929162b8a2853c2cfc33075320efb5
0,         71,         71,        1,   172800, 2e929162b8a2853c2cfc33075320efb5
0,         72,         72,        1,   172800, 02fb8f9c913acede6dc1951225e339af
0,         73,         73,        1,   172800, 02fb8f9c913acede6dc1951225e339af
0,         74,         74,        1,   172800, 79e200b0359ee7878ac47af8108796f7
0,         75,         75,        1,   172800, 79e200b0359ee7878ac47af8108796f7
1,     110250,     110250,    22050,    88200, 3f68711748c4966eb31a59fc15db23c9
0,         76,         76,        1,   172800, 2136540aa0636dfd22889fa0e7afd454
0,         77,         77,        1,   172800, 2136540aa0636dfd22889fa0e7afd454
0,         78,         78,        1,   172800, e2882072b29647ba989b743c71684d8a
0,         79,         79,        1,   172800, e2882072b29647ba989b743c71684d8a
0,         80,         80,        1,   172800, 40b6fa8ca868370f41b99c9f97ef348c
0,         81,         81,        1,   172800, 40b6fa8ca868370f41b99c9f97ef348c
0,         82,         82,        1,   172800, 81ce5906a878c0ffe3cf2dfa7d65f2fe
0,         83,         83,        1,   172800, 81ce5906a878c0ffe3cf2dfa7d65f2fe
0,         84,         84,        1,   172800, 059b295fc88be21c953f4ae6d232f825
0,         85,         85,        1,   172800, 059b295fc88be21c953f4ae6d232f825
0,         86,         86,        1,   172800, 20d70ea7732037b383aa366129bfe759
0,         87,         87,        1,   172800, 20d70ea7732037b383aa366129bfe759
0,         88,         88,        1,   172800, 49e767cb2b09ed204e3d75c33bdfa662
0,         89,         89,        1,   172800, 49e767cb2b09ed204e3d75c33bdfa662
0,         90,         90,        1,   172800, 46a052b2c2177b212a792b0eba7eda94
1,     132300,     132300,    22050,    88200, 795e4a58d65c2cff44574d7186ab716b
0,         91,         91,        1,   172800, 46a052b2c2177b212a792b0eba7eda94
0,         92,         92,        1,   172800, 8d646e503151ff53a997e94c6a602f04
0,         93,         93,        1,   172800, 8d646e503151ff53a997e94c6a602f04
0,         94,         94,        1,   172800, 4615120f2dc8c5de448288d7dc79554a
0,         95,         95,        1,   172800, 4615120f2dc8c5de448288d7dc79554a
0,         96,         96,        1,   172800, 26b7e4d35c161fb36cb1b96c63c6f179
0,         97,         97,        1,   172800, 26b7e4d35c161fb36cb1b96c63c6f179
0,         98,         98,        1,   172800, 5d1e30e2eee099e0a09d378fba1b7472
0,         99,         99,        1,   172800, 5d1e30e2eee099e0a09d378fba1b7472
0,        100,        100,        1,   172800, b38110db67bf3512dff102bf7258f5d5
0,        101,        101,        1,   172800, b38110db67bf3512dff102bf7258f5d5
0,        102,        102,        1,   172800, b9b21194606861d5f0698f1605c053bf
0,        103,        103,        1,   172800, b9b21194606861d5f0698f1605c053bf
0,        104,        104,        1,   172800, b0fda06c3c1f1b329e70bf16fe2122d4
0,        105,        105,        1,   172800, b0fda06c3c1f1b329e70bf16fe2122d4
1,     154350,     154350,    22050,    88200, 7f2cfcca9864b3a90e7bdaae7fdf3d20
0,        106,        106,        1,   172800, ffd620dc5eb68e8e5e589e2a24f9f55d
0,        107,        107,        1,   172800, ffd620dc5eb68e8e5e589e2a24f9f55d
0,        108,        108,        1,   172800, 4838485d59962a7ab595c1d90b10495b
0,        109,        109,        1,   172800, 4838485d59962a7ab595c1d90b10495b
0,        110,        110,        1,   172800, a93467168cadc6643e6172fce1a77d89
0,        111,        111,        1,   172800, a93467168cadc6643e6172fce1a77d89
0,        112,        112,        1,   172800, 8aeea88c11bc439327aa01dcdbd0690d
0,        113,        113,        1,   172800, 8aeea88c11bc439327aa01dcdbd0690d
0,        114,        114,        1,   172800, d0f2375de7e1ae046f92cc41ff15741a
0,        115,        115,        1,   172800, d0f2375de7e1ae046f92cc41ff15741a
0,        116,        116,        1,   172800, ef69e390085401cc88133c831a786c46
0,        117,        117,        1,   172800, ef69e390085401cc88133c831a786c46
0,        118,        118,        1,   172800, 9115c3f0c10fc69d78bebd6b0760bdc1
0,        119,        119,        1,   172800, b7226dd447a0d04dc10dbba51073e198
0,        120,        120,        1,   172800, 67896e7a7faa9e0daf3703e38bb05cb7
1,     176400,     176400,    22050,    88200, f59ecaabfa024e9b73520cbf209728b9
0,        121,        121,        1,   172800, a035f4f7707954189291ef9de67544e8
0,        122,        122,        1,   172800, fbf4962bf61e3ec73c886d7d0b71159f
0,        123,        123,        1,   172800, a5187f2220c062357feb6c8b609fa05c
0,        124,        124,        1,   172800, 0f7d295065af673f816d574513413672
0,        125,        125,        1,   172800, 1149cbdd5c716ebfec9de37a87554a97
0,        126,        126,        1,   172800, 1a18a5189bc72f6de57b3635acfe927f
0,        127,        127,        1,   172800, e99a1cc9fee42e40b2ac0cfcfcbf1fcf
0,        128,        128,        1,   172800, 2299a50887b7ea3e969d2c280afc3e05
0,        129,        129,        1,   172800, 6b5f5e1e95a43a9b44dfa347e0384495
0,        130,        130,        1,   172800, 93e33d68cfa4c1e4a236aa5892474e44
0,        131,        131,        1,   172800, 56e8cc40426a730b945df5cbf8b90652
0,        132,        132,        1,   172800, 5a2e47fc25dbaaabd842f678d7f3986c
0,        133,        133,        1,   172800, 93a00ae2c69afa31920161f57b5b255f
0,        134,        134,        1,   172800, 057b9d888f08ea6f7118992fe01631ae
0,        135,        135,        1,   172800, d9658cdd62cce8dc69a29c036c2110a6
1,     198450,     198450,    22050,    88200, 22e360d1dfd84ddc856c5bedbd5f4993
0,        136,        136,        1,   172800, 5adbe1963df4e129364d668b1b9809f3
0,        137,        137,        1,   172800, 2bfc66320d4f10b93575feab0dd916da
0,        138,        138,        1,   172800, 037913b4da1d8cb895cac20434540e46
0,        139,        139,        1,   172800, 6ccc8be17a2f6ac0733d65e9043ac1f9
0,        140,        140,        1,   172800, 46bca2857b5910a9a472a19fa1c9af8a
0,        141,        141,        1,   172800, ddba4b50b9204864df0e75f417075e52
0,        142,        142,        1,   172800, 03d1c2cf22a2d72e21344185d5ff7695
0,        143,        143,        1,   172800, 752de832a7ce585352419fb7b4ea5746
0,        144,        144,        1,   172800, 103b1eb35bdfb07d73e33967e9547a18
0,        145,        145,        1,   172800, 7d6594ec9a225a7e047ae864026624eb
0,        146,        146,        1,   172800, 974830dbb771d7dc5b6f27101e5d645f
0,        147,        147,        1,   172800, 0bfe8be8b8973047c1332b0c987c3558
0,        148,        148,        1,   172800, 4f4ed5a2631a9fb8376b7d437994c9d4
0,        149,        149,        1,   172800, 7afd9b634eaf9ba219114bf4f581de55
0,        150,        150,        1,   172800, c63f2f86871c9b97448341668bdc9396
1,     220500,     220500,    22050,    88200, 89900389174de25255ba5eda93b1bf7a
0,        151,        151,        1,   172800, e24accccbee9adf6f51bcacc6bb38ebe
0,        152,        152,        1,   172800, e42b5ebea9e71b3fc3ec524809314de2
0,        153,        153,        1,   172800, 62f0fe26bd71e21efbcc0d2b45d8eb79
0,        154,        154,        1,   172800, 681ee59a87a084a225ecb093020ae145
0,        155,        155,        1,   172800, 5f6b73defd3a6b7d15e0b1e6032e0432
0,        156,        156,        1,   172800, 17baad2827cf5e2f36b651d6144d7d6d
0,        157,        157,        1,   172800, 4f6319cc91e0b5b2f00808c16926f07a
0,        158,        158,        1,   172800, 0f125c71e04168db926c56e466d7e90e
0,        159,        159,        1,   172800, daa81d58a0c1b7fe5b9d8e16d9e1c315
0,        160,        160,        1,   172800, 10f4b1e2ebf99d06d20ded37026d8dbe
0,        161,        161,        1,   172800, 71ee4fe9a426c76db6ad30e4beea1dc3
0,        162,        162,        1,   172800, 2e311508d840ac77a952883f82f40b6e
0,        163,        163,        1,   172800, e03bbd65614b23a4e0d375247788f163
0,        164,        164,        1,   172800, 2993695321fd8216b8c953e76c9b56de
0,        165,        165,        1,   172800, c2bb2eb22fea9673952b6d29f5be9059
1,     242550,     242550,    22050,    88200, 7db5d131dd15be999cc9c3458dda5422
0,        166,        166,        1,   172800, a8c87d3465330ce22d4904e6e39a5595
0,        167,        167,        1,   172800, ac7dfb95471828c7bb8e474b59e29d21
0,        168,        168,        1,   172800, bde6cd135eac87b9475c3b623cf99c48
0,        169,        169,        1,   172800, 38d744bb2f77e426367153e3adaef2ca
0,        170,        170,        1,   172800, 4b241803cddd459b2033c2550859669a
0,        171,        171,        1,   172800, 14e24dce06ab5eefa265afb5e2c3c54c
0,        172,        172,        1,   172800, b8ebe732038e4c47f1ceff3385cb7887
0,        173,        173,        1,   172800, 16c10164e553283592ec1c72b50a05f6
0,        174,        174,        1,   172800, 14eab43c5063c83cdd7fd6bcce6d5271
0,        175,        175,        1,   172800, 5e8818e82ca633ec62b670e6a66c2501
0,        176,        176,        1,   172800, 14fc33a59d1126c67fac86e3a8230f1c
0,        177,        177,        1,   172800, 78d20b5c38f6daecccfcd9ec83ee70f9
0,        178,        178,        1,   172800, eda715e204600f50c432cbfdbed42c43
0,        179,        179,        1,   172800, 6edb1238509d213519dabf1c4dc3d634
0,        180,        180,        1,   172800, 687a7b78ce81fcb69e0f329a84c424df
1,     264600,     264600,    22050,    88200, a863ef25e361852d5b980d6135015f2e
0,        181,        181,        1,   172800, 22cb21cd0e7d24e175c80ecdcde00f06
0,        182,        182,        1,   172800, bd27bba6d58493c1fc1b329a00db825a
0,        183,        183,        1,   172800, 854c05025a56a10af59fa65da2064b71
0,        184,        184,        1,   172800, a6ddecd24ab621d4ebad626cae4efcf9
0,        185,        185,        1,   172800, 03fdd78905a8dbbc10e3dfd0c16e178e
0,        186,        186,        1,   172800, 35ae3e6b4c9457f004c11ae538b27a7a
0,        187,        187,        1,   172800, c2495bb7f44c8fcde5580b51e416d816
0,        188,        188,        1,   172800, 99081e72c5e452d7b804d3f0eea01976
0,        189,        189,        1,   172800, a86a9bec66dfd96118f916105d115e18
0,        190,        190,        1,   172800, 40480f938180c5605eec4ebaaf708659
0,        191,        191,        1,   172800, 63806f6a698facc926fa62f84bcec21c
0,        192,        192,        1,   172800, 6b8859a15414a69b500e2f984e8cce9b
0,        193,        193,        1,   172800, 1fa74f2b71b10cd653faf1caef68e79c
0,        194,        194,        1,   172800, cac8f2797d2ac2df2f42e0fdb82c0649
0,        195,        195,        1,   172800, 5330b4f2bbd3006f5088e3ba284b0016
1,     286650,     286650,    22050,    88200, 6aebe731ea7071bf93d856437fd170a3
0,        196,        196,        1,   172800, 75d7d97e441ba8e5a4ff1249fe14ac28
0,        197,        197,        1,   172800, d2ae4d86439706cc8dcccb243316052d
0,        198,        198,        1,   172800, 0fddc90cacc70054020305fb6f821a36
0,        199,        199,        1,   172800, e2d4f3b52bddfcd60da0d0ec347bf4d0
0,        200,        200,        1,   172800, cc7e78fa0d531b1f27d439eb09bf0029
0,        201,        201,        1,   172800, 539a80e8e1d09d28f0dc11d01edad0f4
0,        202,        202,        1,   172800, 19db745c19bbaad0b163bedf893ef47a
0,        203,        203,        1,   172800, 9c24cd75689bb63cbbae51d8f75d4d96
0,        204,        204,        1,   172800, 81ba7e1e12b23a4c6d17823bfbd6527b
0,        205,        205,        1,   172800, c4a870f6541a4a230a600e58ca667b68
0,        206,        206,        1,   172800, 987570e7724e6409781d9c9f829ad4b9
0,        207,        207,        1,   172800, 9c93c0cb6c34a79bd43119fe42e3b00d
0,        208,        208,        1,   172800, 11c3f00306e1c1d85637034aa3fdc46c
0,        209,        209,        1,   172800, c86daf0c1e7c04d27797d8995643b31d
0,        210,        210,        1,   172800, c86daf0c1e7c04d27797d8995643b31d
1,     308700,     308700,    22050,    88200, 9c15080b466a47b299d7e00dc8e01f05
0,        211,        211,        1,   172800, 90719ba7569d69982368a00aa8becaeb
0,        212,        212,        1,   172800, 90719ba7569d69982368a00aa8becaeb
0,        213,        213,        1,   172800, b925a74d13fcc770b7ae1786364f9672
0,        214,        214,        1,   172800, b925a74d13fcc770b7ae1786364f9672
0,        215,        215,        1,   172800, 798a3dc107b4aa6a5a555f0d2829c79d
0,        216,        216,        1,   172800, 798a3dc107b4aa6a5a555f0d2829c79d
0,        217,        217,        1,   172800, 2b9d8c08293a6944d1ed1c9553dfe39d
0,        218,        218,        1,   172800, 2b9d8c08293a6944d1ed1c9553dfe39d
0,        219,        219,        1,   172800, b74f4a868139e7b38e92671916c0a8f1
0,        220,        220,        1,   172800, b74f4a868139e7b38e92671916c0a8f1
0,        221,        221,        1,   172800, b2e1ce936f18c7c704a47a169bd8c272
0,        222,        222,        1,   172800, b2e1ce936f18c7c704a47a169bd8c272
0,        223,        223,        1,   172800, 3075d8fd48a491879c13ec362264ee38
0,        224,        224,        1,   172800, 3075d8fd48a491879c13ec362264ee38
0,        225,        225,        1,   172800, f1e92c318de2f721d0a35fc9caaf1955
1,     330750,     330750,    22050,    88200, 5bc5f7e5db2654cc5e9643eec2b9ee42
0,        226,        226,        1,   172800, f1e92c318de2f721d0a35fc9caaf1955
0,        227,        227,        1,   172800, 442deb4ff1de3f093f51d75e26e28c05
0,        228,        228,        1,   172800, 442deb4ff1de3f093f51d75e26e28c05
0,        229,        229,        1,   172800, 2e6d1fb4bd3a748a60edb4c2ddcd0da9
0,        230,        230,        1,   172800, 2e6d1fb4bd3a748a60edb4c2ddcd0da9
0,        231,        231,        1,   172800, 63dfe1dc07bb6b6f12ade368942934a4
0,        232,        232,        1,   172800, 63dfe1dc07bb6b6f12ade368942934a4
0,        233,        233,        1,   172800, 40255c89ef14ada0541a302f733e4ca1
0,        234,        234,        1,   172800, 40255c89ef14ada0541a302f733e4ca1
0,        235,        235,        1,   172800, 10d0f5c1af4f3ac0f0ef6b66ab330c7e
0,        236,        236,        1,   172800, 10d0f5c1af4f3ac0f0ef6b66ab330c7e
0,        237,        237,        1,   172800, 87f385e539896c55f97782b8aa6d6f50
0,        238,        238,        1,   172800, 87f385e539896c55f97782b8aa6d6f50
0,        239,        239,        1,   172800, 1ccc7d3bebe47c03675249005b1b5e64
0,        240,        240,        1,   172800, 1ccc7d3bebe47c03675249005b1b5e64
1,     352800,     352800,    22050,    88200, 170e0647a838dc38f736f649149730dc
0,        241,        241,        1,   172800, 89387ce8072833d41dc366401d858cca
0,        242,        242,        1,   172800, 89387ce8072833d41dc366401d858cca
0,        243,        243,        1,   172800, b3ace3f57212860b81b9461d2da3086f
0,        244,        244,        1,   172800, b3ace3f57212860b81b9461d2da3086f
0,        245,        245,        1,   172800, e8228dc015a8b9012a6c3b66f461ba60
0,        246,        246,        1,   172800, e8228dc015a8b9012a6c3b66f461ba60
0,        247,        247,        1,   172800, 9bbe737e220ef16caa90e5e0fcb84ae3
0,        248,        248,        1,   172800, 9bbe737e220ef16caa90e5e0fcb84ae3
0,        249,        249,        1,   172800, 66fc6225fb86953a34e537954b1626e1
0,        250,        250,        1,   172800, 66fc6225fb86953a34e537954b1626e1
0,        251,        251,        1,   172800, cfadf60ddf2800d3b31097d546391881
0,        252,        252,        1,   172800, cfadf60ddf2800d3b31097d546391881
0,        253,        253,        1,   172800, 7a49238e8983ea78b3071f41c6fe03a1
0,        254,        254,        1,   172800, 7a49238e8983ea78b3071f41c6fe03a1
0,        255,        255,        1,   172800, a601e0911c2445a5c2f3ebd4da724021
1,     374850,     374850,    22050,    88200, 09241d32e433ecbfebfa740bfde00bd4
0,        256,        256,        1,   172800, a601e0911c2445a5c2f3ebd4da724021
0,        257,        257,        1,   172800, f8eba119879c10ad35e663d694835643
0,        258,        258,        1,   172800, f8eba119879c10ad35e663d694835643
0,        259,        259,        1,   172800, 49c6049b3462f9e5de9c5e1b2aa2d4fd
0,        260,        260,        1,   172800, 49c6049b3462f9e5de9c5e1b2aa2d4fd
0,        261,        261,        1,   172800, c0c61a13b0b25dd1bed4e542baca74a9
0,        262,        262,        1,   172800, c0c61a13b0b25dd1bed4e542baca74a9
0,        263,        263,        1,   172800, cafe4f06a0d090313850a52b9591179c
0,        264,        264,        1,   172800, cafe4f06a0d090313850a52b9591179c
0,        265,        265,        1,   172800, b43e60a4d3ae46f5e8d46dde53940687
0,        266,        266,        1,   172800, b43e60a4d3ae46f5e8d46dde53940687
0,        267,        267,        1,   172800, ef8f5e672c1c4753b679a3e8494698ad
0,        268,        268,        1,   172800, ef8f5e672c1c4753b679a3e8494698ad
0,        269,        269,        1,   172800, 43dd3b6ec8c6b16b4fcece549c4e8a9b
0,        270,        270,        1,   172800, 43dd3b6ec8c6b16b4fcece549c4e8a9b
1,     396900,     396900,    22050,    88200, 483b2c13fdee4bcff3a47d1b0c32363e
0,        271,        271,        1,   172800, ef20c82fc238d8a04de6eac93c0460ae
0,        272,        272,        1,   172800, ef20c82fc238d8a04de6eac93c0460ae
0,        273,        273,        1,   172800, 859976814ad567060e0e02cb07aa3efa
0,        274,        274,        1,   172800, 859976814ad567060e0e02cb07aa3efa
0,        275,        275,        1,   172800, 831d51ba77c17f4328424ab2044c4c99
0,        276,        276,        1,   172800, 831d51ba77c17f4328424ab2044c4c99
0,        277,        277,        1,   172800, e113844eb006a478ac21982d02920b3d
0,        278,        278,        1,   172800, e113844eb006a478ac21982d02920b3d
0,        279,        279,        1,   172800, e476150400c2430f63bc06f015374d7e
0,        280,        280,        1,   172800, e476150400c2430f63bc06f015374d7e
0,        281,        281,        1,   172800, 997e3795de85d81e4bfc3d36478bafd5
0,        282,        282,        1,   172800, 997e3795de85d81e4bfc3d36478bafd5
0,        283,        283,        1,   172800, 3b33ec8e9e48ea08e5cf73e210eca9dd
0,        284,        284,        1,   172800, 3b33ec8e9e48ea08e5cf73e210eca9dd
0,        285,        285,        1,   172800, 5504cbd86f8286607310782c4099ff11
1,     418950,     418950,    22050,    88200, 2a72b69efc67f892866bd35207518e71
0,        286,        286,        1,   172800, 5504cbd86f8286607310782c4099ff11
0,        287,        287,        1,   172800, b887c2fba28fcbd85db7ad02c3cdf07d
0,        288,        288,        1,   172800, b887c2fba28fcbd85db7ad02c3cdf07d
0,        289,        289,        1,   172800, 43ee5c4852bd46f34b7229aad20c5ff8
0,        290,        290,        1,   172800, 43ee5c4852bd46f34b7229aad20c5ff8
0,        291,        291,        1,   172800, a91a1a274352c00932872210a68d199b
0,        292,        292,        1,   172800, a91a1a274352c00932872210a68d199b
0,        293,        293,        1,   172800, cfb0968dfb3df54a2864501285fdc245
0,        294,        294,        1,   172800, cfb0968dfb3df54a2864501285fdc245
0,        295,        295,        1,   172800, 721a18463b9f5effacff43d66ace0279
0,        296,        296,        1,   172800, 721a18463b9f5effacff43d66ace0279
0,        297,        297,        1,   172800, 3af6f4cfc18c3f59c7a492e08c5b7a05
0,        298,        298,        1,   172800, 3af6f4cfc18c3f59c7a492e08c5b7a05
0,        299,        299,        1,   172800, bea2c0fa93657d72ca7155da64646444
0,        300,        300,        1,   172800, bea2c0fa93657d72ca7155da64646444
1,     441000,     441000,    22050,    88200, f5bffd543cff3c490eb037756eb4c268
0,        301,        301,        1,   172800, 3dcfe4ae11f967da3b989d81b1566be2
0,        302,        302,        1,   172800, 3dcfe4ae11f967da3b989d81b1566be2
0,        303,        303,        1,   172800, ab4c5823c823449e8288bb8fb588b930
0,        304,        304,        1,   172800, ab4c5823c823449e8288bb8fb588b930
0,        305,        305,        1,   172800, a22facaaed989ad469045900033ce5a0
0,        306,        306,        1,   172800, a22facaaed989ad469045900033ce5a0
0,        307,        307,        1,   172800, cab1076d07e00faaf45340bbe2937b86
0,        308,        308,        1,   172800, cab1076d07e00faaf45340bbe2937b86
0,        309,        309,        1,   172800, 540703a85359d683303b680a3ed01451
0,        310,        310,        1,   172800, 540703a85359d683303b680a3ed01451
0,        311,        311,        1,   172800, 4c32a92228d178223430bec1148edf37
0,        312,        312,        1,   172800, 4c32a92228d178223430bec1148edf37
0,        313,        313,        1,   172800, ec6d5e784aed8ff579675441e7873ec2
0,        314,        314,        1,   172800, ec6d5e784aed8ff579675441e7873ec2
0,        315,        315,        1,   172800, 1521e51b41983b2213a731b1e2d4bafd
1,     463050,     463050,    21720,    86880, b3864799f1d4d2be5ac64b3eaba887d9
0,        316,        316,        1,   172800, 1521e51b41983b2213a731b1e2d4bafd
0,        317,        317,        1,   172800, 243563ea7886ff6fd38105ba507d595d
0,        318,        318,        1,   172800, 243563ea7886ff6fd38105ba507d595d
0,        319,        319,        1,   172800, f8cb3a0aea126cad047cd42b7d37f8af
0,        320,        320,        1,   172800, f8cb3a0aea126cad047cd42b7d37f8af
0,        321,        321,        1,   172800, 5933cbe6be459b52046f19ca5efee8f0
0,        322,        322,        1,   172800, 5933cbe6be459b52046f19ca5efee8f0
0,        323,        323,        1,   172800, f5312c790ce29793360cb87feb505e2e
0,        324,        324,        1,   172800, f5312c790ce29793360cb87feb505e2e
0,        325,        325,        1,   172800, 4616c9f465c259204761a3ccc998e6ae
0,        326,        326,        1,   172800, 4616c9f465c259204761a3ccc998e6ae
0,        327,        327,        1,   172800, 8a808c1a990871fb19027af9dd08b017
0,        328,        328,        1,   172800, 8a808c1a990871fb19027af9dd08b017
0,        329,        329,        1,   172800, 8a808c1a990871fb19027af9dd08b017
